# xmcd
#
# Track frame offsets:
#	150
#	12074
#	22293
#	36875
#	49180
#	58198
#	71230
#	83691
#	97651
#	116815
#	126480
#	133615
#	145955
#	158694
#
# Disc length: 2147 seconds
#
# Revision: 1
# Processed by: cddbd v1.4PL0 Copyright (c) Steve Scherf et al.
# Submitted via: audiograbber 1.82.02
#
DISCID=c508610e
DTITLE=Texas Shorty - Coming Down From Denver
DYEAR=2002
DGENRE=Bluegrass
TTITLE0=Tom And Jerry
TTITLE1=Gravy Waltz
TTITLE2=Woodchopper's Breakdown
TTITLE3=Forked Deer
TTITLE4=Last Waltz
TTITLE5=Coming Down From Denver
TTITLE6=Venezuelan Nights
TTITLE7=Brilliancy
TTITLE8=Rose Of Avon
TTITLE9=Leather Britches
TTITLE10=Bee's Wing Hornpipe
TTITLE11=Bonaparte Crossing The Rockies
TTITLE12=On the Trail Waltz
TTITLE13=(untitled)
EXTD=
EXTT0=
EXTT1=
EXTT2=
EXTT3=
EXTT4=
EXTT5=
EXTT6=
EXTT7=
EXTT8=
EXTT9=
EXTT10=
EXTT11=
EXTT12=
EXTT13=
PLAYORDER=
